<?xml version="1.0" encoding="utf-8"?>
<!-- Generator: Adobe Illustrator 24.0.1, SVG Export Plug-In . SVG Version: 6.00 Build 0)  -->
<svg version="1.2" baseProfile="tiny" id="Calque_1"
	 xmlns="http://www.w3.org/2000/svg" xmlns:xlink="http://www.w3.org/1999/xlink" x="0px" y="0px" width="450px" height="310px"
	 viewBox="0 0 450 310" xml:space="preserve">
<path d="M441.9,254.7v-9.8h-28.8v9.8h-16.2v-9.8h-28.8v9.8h-12.3c1.2-0.8,1.9-2.2,1.9-3.7v-45.6h13V188h7.5v-40.3h-7.5v-17.4H362
	v-21c12.3-2,21.6-11.6,21.6-23.1c0-12.8-11.6-23.2-26-23.4V41.5c0-2.3-2.1-4.2-4.8-4.2h-65.4V0H162v37.2H97.3
	c-2.7,0-4.8,1.9-4.8,4.2v21.4C78,63,66.3,73.4,66.3,86.2c0,11.5,9.4,21,21.7,23.1v21h-6.8v17.4h-7.5V188h7.5v17.4h11.2V251
	c0,1.5,0.8,2.9,2,3.7H81.9v-9.8H53.1v9.8H36.9v-9.8H8.1v9.8H0V310h450v-55.3H441.9z"/>
<text transform="matrix(1.001 0 0 1 26.2969 292.5889)" fill="#FFFFFF" font-family="'Geometos'" font-size="24.3995px">n</text>
<text transform="matrix(1.001 0 0 1 46.9585 292.5889)" fill="#FFFFFF" font-family="'Geometos'" font-size="24.3995px">a</text>
<text transform="matrix(1.001 0 0 1 65.9351 292.5889)" fill="#FFFFFF" font-family="'Geometos'" font-size="24.3995px">o</text>
<text transform="matrix(1.001 0 0 1 87.8179 292.5889)" fill="#FFFFFF" font-family="'Geometos'" font-size="24.3995px">n</text>
<text transform="matrix(1.001 0 0 1 108.4795 292.5889)" fill="#FFFFFF" font-family="'Geometos'" font-size="24.3995px">e</text>
<text transform="matrix(1.001 0 0 1 126.3818 292.5889)" fill="#FFFFFF" font-family="'Geometos'" font-size="24.3995px">d</text>
<text transform="matrix(1.001 0 0 1 146.7988 292.5889)" fill="#FFFFFF" font-family="'Geometos'" font-size="24.3995px">-</text>
<text transform="matrix(1.001 0 0 1 158.0088 292.5889)" fill="#FFFFFF" font-family="'Geometos'" font-size="24.3995px">m</text>
<text transform="matrix(1.001 0 0 1 180.8447 292.5889)" fill="#FFFFFF" font-family="'Geometos'" font-size="24.3995px">a</text>
<text transform="matrix(1.001 0 0 1 200.9688 292.5889)" fill="#FFFFFF" font-family="'Geometos'" font-size="24.3995px">k</text>
<text transform="matrix(1.001 0 0 1 220.1406 292.5889)" fill="#FFFFFF" font-family="'Geometos'" font-size="24.3995px">e</text>
<text transform="matrix(1.001 0 0 1 238.043 292.5889)" fill="#FFFFFF" font-family="'Geometos'" font-size="24.3995px">r</text>
<text transform="matrix(1.001 0 0 1 256.8486 292.5889)" fill="#FFFFFF" font-family="'Geometos'" font-size="24.3995px">s</text>
<text transform="matrix(1.001 0 0 1 274.6777 292.5889)" fill="#FFFFFF" font-family="'Geometos'" font-size="24.3995px">.</text>
<text transform="matrix(1.001 0 0 1 280.5879 292.5889)" fill="#FFFFFF" font-family="'Geometos'" font-size="24.3995px">g</text>
<text transform="matrix(1.001 0 0 1 302.0313 292.5889)" fill="#FFFFFF" font-family="'Geometos'" font-size="24.3995px">i</text>
<text transform="matrix(1.001 0 0 1 310.5547 292.5889)" fill="#FFFFFF" font-family="'Geometos'" font-size="24.3995px">t</text>
<text transform="matrix(1.001 0 0 1 326.9668 292.5889)" fill="#FFFFFF" font-family="'Geometos'" font-size="24.3995px">h</text>
<text transform="matrix(1.001 0 0 1 347.7256 292.5889)" fill="#FFFFFF" font-family="'Geometos'" font-size="24.3995px">u</text>
<text transform="matrix(1.001 0 0 1 368.1924 292.5889)" fill="#FFFFFF" font-family="'Geometos'" font-size="24.3995px">b</text>
<text transform="matrix(1.001 0 0 1 386.3877 292.5889)" fill="#FFFFFF" font-family="'Geometos'" font-size="24.3995px">.</text>
<text transform="matrix(1.001 0 0 1 392.2979 292.5889)" fill="#FFFFFF" font-family="'Geometos'" font-size="24.3995px">i</text>
<text transform="matrix(1.001 0 0 1 401.8223 292.5889)" fill="#FFFFFF" font-family="'Geometos'" font-size="24.3995px">o</text>
<g>
	<rect x="120.4" y="173.8" width="21.1" height="78.6"/>
	<rect x="120.4" y="173.8" fill="#808184" width="21.1" height="81.7"/>
	<rect x="162" y="98" fill="#808184" width="21.1" height="157.4"/>
	<rect x="287.5" y="37.2" fill="#808184" width="21.1" height="218.2"/>
	<polygon fill="#FFFFFF" points="141.5,173.8 183,255.4 162.2,255.4 120.7,173.8 	"/>
	<polygon fill="#808184" points="245.2,0 203.7,172.5 224.4,172.5 265.9,0 	"/>
	<rect x="245.2" fill="#FFFFFF" width="21.1" height="255.4"/>
	<polygon fill="#FFFFFF" points="183,98 224.4,172.5 203.7,172.5 162.2,98 	"/>
</g>
</svg>
