<?xml version="1.0" encoding="utf-8"?>
<!-- Generator: Adobe Illustrator 24.0.1, SVG Export Plug-In . SVG Version: 6.00 Build 0)  -->
<svg version="1.1" id="Calque_1" xmlns="http://www.w3.org/2000/svg" xmlns:xlink="http://www.w3.org/1999/xlink" x="0px" y="0px"
	 width="450px" height="310px" viewBox="0 0 450 310" style="enable-background:new 0 0 450 310;" xml:space="preserve">
<style type="text/css">
	.st0{fill:#FFFFFF;}
	.st1{fill:#808184;}
</style>
<path d="M441.9,254.7v-9.8h-28.8v9.8h-16.2v-9.8h-28.8v9.8h-12.3c1.2-0.8,1.9-2.2,1.9-3.7v-45.6h13V188h7.5v-40.3h-7.5v-17.4H362
	v-21c12.3-2,21.6-11.6,21.6-23.1c0-12.8-11.6-23.2-26-23.4V41.5c0-2.3-2.1-4.2-4.8-4.2h-65.4V0H162v37.2H97.3
	c-2.7,0-4.8,1.9-4.8,4.2v21.4C78,63,66.3,73.4,66.3,86.2c0,11.5,9.4,21,21.7,23.1v21h-6.8v17.4h-7.5V188h7.5v17.4h11.2V251
	c0,1.5,0.8,2.9,2,3.7H81.9v-9.8H53.1v9.8H36.9v-9.8H8.1v9.8H0V310h450v-55.3H441.9z"/>
<g>
	<polygon class="st0" points="40.4,285.5 28.6,274.8 28.3,274.8 28.3,292.6 31.7,292.6 31.7,282 43.4,292.6 43.8,292.6 43.8,274.8 
		40.4,274.8 	"/>
	<path class="st0" d="M56.2,274.8l-9.1,17.8h3.7l1.4-2.8h8.4l1.4,2.8h3.7l-9.1-17.8H56.2z M53.8,286.8l2.6-5.4l2.5,5.4H53.8z"/>
	<path class="st0" d="M82.8,277.1c-0.8-0.8-1.8-1.5-2.9-2c-1.1-0.5-2.3-0.7-3.6-0.7c-1.3,0-2.5,0.2-3.6,0.7c-1.1,0.5-2.1,1.2-2.9,2
		c-0.8,0.8-1.5,1.8-2,3c-0.5,1.1-0.7,2.3-0.7,3.6c0,1.3,0.2,2.5,0.7,3.6c0.5,1.1,1.2,2.1,2,2.9c0.8,0.8,1.8,1.5,2.9,2
		c1.1,0.5,2.3,0.7,3.6,0.7c1.3,0,2.5-0.2,3.6-0.7c1.1-0.5,2.1-1.2,2.9-2c0.8-0.8,1.5-1.8,2-2.9c0.5-1.1,0.7-2.3,0.7-3.6
		c0-1.3-0.2-2.5-0.7-3.6C84.3,278.9,83.6,277.9,82.8,277.1z M81.6,286c-0.3,0.7-0.7,1.4-1.3,1.9c-0.5,0.6-1.1,1-1.9,1.3
		c-0.7,0.3-1.5,0.5-2.3,0.5c-0.8,0-1.6-0.2-2.3-0.5c-0.7-0.3-1.3-0.8-1.9-1.3c-0.5-0.6-0.9-1.2-1.3-1.9c-0.3-0.7-0.5-1.5-0.5-2.3
		c0-0.8,0.2-1.6,0.5-2.3c0.3-0.7,0.7-1.4,1.3-1.9c0.5-0.6,1.1-1,1.9-1.3c0.7-0.3,1.5-0.5,2.3-0.5c0.8,0,1.6,0.2,2.3,0.5
		c0.7,0.3,1.3,0.8,1.9,1.3c0.5,0.6,0.9,1.2,1.3,1.9c0.3,0.7,0.5,1.5,0.5,2.3C82.1,284.5,81.9,285.2,81.6,286z"/>
	<polygon class="st0" points="101.9,285.5 90.1,274.8 89.8,274.8 89.8,292.6 93.2,292.6 93.2,282 104.9,292.6 105.3,292.6 
		105.3,274.8 101.9,274.8 	"/>
	<polygon class="st0" points="110.4,292.6 123.6,292.6 123.6,289.5 113.9,289.5 113.9,285.3 122.5,285.3 122.5,282.2 113.9,282.2 
		113.9,277.8 123.6,277.8 123.6,274.7 110.4,274.7 	"/>
	<path class="st0" d="M141.7,277c-1.6-1.5-3.7-2.2-6.3-2.2h-7v17.9h7c1.3,0,2.4-0.2,3.5-0.6c1.1-0.4,2-0.9,2.8-1.7
		c0.9-0.8,1.5-1.8,2-2.9s0.7-2.4,0.7-3.8c0-1.4-0.2-2.7-0.7-3.8C143.2,278.7,142.6,277.8,141.7,277z M140.4,286.7
		c-0.3,0.8-0.8,1.4-1.3,1.8c-0.5,0.4-1.1,0.7-1.8,0.9c-0.7,0.1-1.3,0.2-1.9,0.2h-3.6v-11.8h3.6c0.6,0,1.3,0.1,1.9,0.2
		c0.7,0.1,1.2,0.4,1.8,0.9c0.5,0.4,1,1,1.3,1.8c0.3,0.8,0.5,1.8,0.5,3C140.9,284.9,140.7,285.9,140.4,286.7z"/>
	<rect x="147.7" y="281.9" class="st0" width="8" height="3"/>
	<polygon class="st0" points="169,285 160.2,274.8 160,274.8 160,292.6 163.4,292.6 163.4,283.6 169,290.3 174.5,283.6 174.5,292.6 
		178,292.6 178,274.8 177.7,274.8 	"/>
	<path class="st0" d="M190.1,274.8l-9.1,17.8h3.7l1.4-2.8h8.4l1.4,2.8h3.7l-9.1-17.8H190.1z M187.7,286.8l2.6-5.4l2.5,5.4H187.7z"/>
	<polygon class="st0" points="217.7,274.8 213.4,274.8 206.3,283.8 206.3,274.7 202.9,274.7 202.9,292.6 206.3,292.6 206.3,284.5 
		213.8,292.6 218.4,292.6 210.3,284 	"/>
	<polygon class="st0" points="222.1,292.6 235.3,292.6 235.3,289.5 225.5,289.5 225.5,285.3 234.2,285.3 234.2,282.2 225.5,282.2 
		225.5,277.8 235.3,277.8 235.3,274.7 222.1,274.7 	"/>
	<path class="st0" d="M253.3,284.4c0.7-1,1-2.2,1-3.5c0-0.9-0.2-1.7-0.5-2.5c-0.3-0.8-0.7-1.4-1.3-2c-0.5-0.5-1.2-1-1.9-1.3
		c-0.8-0.3-1.6-0.5-2.5-0.5H240v17.9h3.4v-5.7h3.4c0.7,1,1.4,1.9,2,2.9c0.7,0.9,1.4,1.9,2.1,2.8h4.1c-1.5-2-2.9-4-4.5-6
		C251.7,286.1,252.6,285.4,253.3,284.4z M249.1,283.7c-0.3,0.1-0.7,0.2-1,0.2h-4.7v-6.1h4.7c0.6,0,1.1,0.1,1.4,0.3s0.6,0.5,0.8,0.8
		c0.2,0.3,0.3,0.7,0.4,1c0.1,0.4,0.1,0.7,0.1,0.9c0,0.5-0.1,0.9-0.3,1.3c-0.2,0.4-0.4,0.7-0.6,0.9
		C249.7,283.4,249.4,283.6,249.1,283.7z"/>
	<path class="st0" d="M271.3,284c-0.4-0.4-0.8-0.7-1.3-0.9c-0.5-0.2-1-0.4-1.5-0.6c-0.5-0.1-1-0.3-1.4-0.3c-0.5-0.1-0.9-0.2-1.2-0.2
		c-0.5-0.1-0.9-0.2-1.4-0.3c-0.5-0.1-0.9-0.3-1.3-0.4c-0.4-0.2-0.7-0.4-1-0.6c-0.3-0.2-0.4-0.5-0.4-0.9s0.1-0.7,0.3-0.9
		s0.5-0.5,0.8-0.6c0.3-0.2,0.7-0.3,1.1-0.4c0.4-0.1,0.7-0.1,1-0.1c0.9,0,1.7,0.2,2.5,0.5c0.8,0.3,1.6,0.8,2.4,1.3l1.9-2.7
		c-0.6-0.4-1.1-0.7-1.6-1s-1-0.5-1.5-0.7c-0.5-0.2-1.1-0.3-1.6-0.4s-1.3-0.1-2-0.1s-1.5,0.1-2.3,0.2c-0.8,0.2-1.5,0.4-2.2,0.8
		s-1.2,0.9-1.6,1.6c-0.4,0.7-0.6,1.6-0.6,2.6c0,0.7,0.1,1.3,0.4,1.9c0.2,0.5,0.5,1,0.9,1.4c0.4,0.4,0.8,0.7,1.3,1
		c0.5,0.3,1,0.5,1.5,0.6c0.5,0.2,1,0.3,1.5,0.4c0.5,0.1,0.9,0.2,1.2,0.2c0.5,0.1,1.1,0.2,1.6,0.3c0.5,0.1,0.9,0.3,1.3,0.4
		c0.4,0.2,0.7,0.4,0.9,0.6c0.2,0.3,0.3,0.6,0.3,0.9c0,0.3-0.1,0.6-0.2,0.8c-0.1,0.3-0.4,0.5-0.7,0.8s-0.7,0.4-1.1,0.5
		c-0.4,0.1-0.9,0.2-1.5,0.2c-1,0-2-0.2-3-0.7s-1.9-1-2.8-1.6l-1.9,2.7c0.6,0.4,1.1,0.7,1.6,1.1s1.1,0.6,1.7,0.8
		c0.6,0.2,1.2,0.4,1.9,0.6c0.7,0.1,1.5,0.2,2.5,0.2c1,0,1.9-0.1,2.8-0.3c0.8-0.2,1.5-0.6,2.1-1c0.6-0.4,1.1-1,1.4-1.7
		c0.3-0.7,0.5-1.5,0.5-2.4c0-0.8-0.1-1.5-0.4-2C272,284.9,271.7,284.4,271.3,284z"/>
	<path class="st0" d="M277.1,289.2c-0.5,0-0.9,0.2-1.3,0.5c-0.4,0.4-0.5,0.8-0.5,1.3c0,0.5,0.2,0.9,0.5,1.3c0.3,0.3,0.8,0.5,1.3,0.5
		c0.5,0,0.9-0.2,1.3-0.5c0.3-0.3,0.5-0.8,0.5-1.3c0-0.5-0.2-0.9-0.5-1.3C278,289.4,277.6,289.2,277.1,289.2z"/>
	<path class="st0" d="M289.6,285.9h6.6c-0.2,0.6-0.4,1.1-0.8,1.6c-0.4,0.5-0.8,0.9-1.2,1.2c-0.5,0.3-1,0.6-1.6,0.8
		c-0.6,0.2-1.2,0.3-1.8,0.3c-0.8,0-1.6-0.2-2.3-0.5c-0.7-0.3-1.3-0.8-1.9-1.3s-0.9-1.2-1.3-1.9s-0.5-1.5-0.5-2.3
		c0-0.8,0.2-1.6,0.5-2.3c0.3-0.7,0.7-1.4,1.3-1.9s1.1-1,1.9-1.3c0.7-0.3,1.5-0.5,2.3-0.5c1,0,1.9,0.3,2.7,0.8c0.8,0.5,1.5,1.2,2,1.9
		l2.9-1.8c-0.8-1.3-1.9-2.3-3.3-3c-1.3-0.7-2.8-1.1-4.4-1.1c-1.3,0-2.5,0.2-3.6,0.7c-1.1,0.5-2.1,1.2-3,2c-0.8,0.8-1.5,1.8-2,3
		c-0.5,1.1-0.7,2.3-0.7,3.6c0,1.3,0.2,2.5,0.7,3.6c0.5,1.1,1.2,2.1,2,2.9c0.8,0.8,1.8,1.5,3,2c1.1,0.5,2.3,0.7,3.6,0.7
		c1.2,0,2.3-0.2,3.3-0.6c1.1-0.4,2-0.9,2.8-1.6c0.8-0.7,1.5-1.5,2-2.5s0.8-2,0.9-3.1c0-0.1,0-0.3,0-0.6c0-0.3,0-0.5,0-0.8
		c0-0.3,0-0.6,0-1h-10.3V285.9z"/>
	<rect x="304.5" y="274.8" class="st0" width="3.4" height="17.8"/>
	<polygon class="st0" points="311.7,277.8 316.8,277.8 316.8,292.6 320.3,292.6 320.3,277.8 325.4,277.8 325.4,274.7 311.7,274.7 	
		"/>
	<polygon class="st0" points="341.2,282.5 332.3,282.5 332.3,274.7 328.9,274.7 328.9,292.6 332.3,292.6 332.3,285.5 341.2,285.5 
		341.2,292.6 344.6,292.6 344.6,274.7 341.2,274.7 	"/>
	<path class="st0" d="M361.6,285.4c0,0.9-0.1,1.6-0.4,2.2c-0.3,0.6-0.7,1-1.1,1.4c-0.4,0.3-0.9,0.6-1.4,0.7
		c-0.5,0.1-0.9,0.2-1.3,0.2s-0.8-0.1-1.3-0.2c-0.5-0.1-1-0.4-1.4-0.7s-0.8-0.8-1.1-1.4c-0.3-0.6-0.4-1.3-0.4-2.2v-10.6h-3.4v10.6
		c0,1.1,0.2,2.2,0.5,3.1c0.4,0.9,0.9,1.7,1.6,2.4c0.7,0.7,1.5,1.2,2.4,1.5c0.9,0.4,2,0.5,3.2,0.5c1.2,0,2.2-0.2,3.2-0.5
		s1.8-0.9,2.4-1.5s1.2-1.4,1.5-2.4c0.4-0.9,0.5-2,0.5-3.1v-10.6h-3.4V285.4z"/>
	<path class="st0" d="M382.8,284.5c-0.3-0.4-0.7-0.7-1.2-0.9s-0.9-0.3-1.3-0.4c0.4,0,0.8-0.1,1.2-0.4c0.4-0.2,0.7-0.5,0.9-0.9
		c0.3-0.3,0.5-0.7,0.6-1.1s0.2-0.8,0.2-1.2c0-1-0.1-1.8-0.4-2.5c-0.3-0.6-0.7-1.1-1.1-1.5c-0.5-0.4-1-0.6-1.7-0.8s-1.3-0.2-2-0.2
		h-7.9v17.9h8.3c0.8,0,1.5-0.1,2.2-0.3c0.7-0.2,1.3-0.5,1.8-0.9c0.5-0.4,0.9-1,1.2-1.6c0.3-0.7,0.4-1.5,0.4-2.5
		c0-0.6-0.1-1.1-0.3-1.6C383.4,285.3,383.1,284.9,382.8,284.5z M373.6,277.8h4.4c0.2,0,0.5,0.1,0.7,0.2s0.4,0.3,0.6,0.4
		c0.2,0.2,0.3,0.4,0.4,0.6c0.1,0.2,0.1,0.5,0.1,0.8s0,0.5-0.1,0.8c-0.1,0.3-0.2,0.5-0.4,0.7c-0.2,0.2-0.4,0.4-0.6,0.5
		c-0.3,0.1-0.5,0.2-0.9,0.2h-4.2V277.8z M380.4,288c-0.1,0.3-0.3,0.5-0.5,0.8s-0.4,0.4-0.7,0.6c-0.3,0.1-0.5,0.2-0.8,0.2h-4.8V285
		h4.5c0.8,0,1.4,0.2,1.8,0.6c0.4,0.4,0.7,0.9,0.7,1.5C380.6,287.4,380.5,287.7,380.4,288z"/>
	<path class="st0" d="M388.8,289.2c-0.5,0-0.9,0.2-1.3,0.5c-0.4,0.4-0.5,0.8-0.5,1.3c0,0.5,0.2,0.9,0.5,1.3c0.3,0.3,0.8,0.5,1.3,0.5
		c0.5,0,0.9-0.2,1.3-0.5c0.3-0.3,0.5-0.8,0.5-1.3c0-0.5-0.2-0.9-0.5-1.3C389.7,289.4,389.3,289.2,388.8,289.2z"/>
	<rect x="394.7" y="274.8" class="st0" width="3.4" height="17.8"/>
	<path class="st0" d="M420.7,280.1c-0.5-1.1-1.2-2.1-2-3c-0.8-0.8-1.8-1.5-2.9-2c-1.1-0.5-2.3-0.7-3.6-0.7c-1.3,0-2.5,0.2-3.6,0.7
		c-1.1,0.5-2.1,1.2-2.9,2s-1.5,1.8-2,3c-0.5,1.1-0.7,2.3-0.7,3.6c0,1.3,0.2,2.5,0.7,3.6c0.5,1.1,1.2,2.1,2,2.9s1.8,1.5,2.9,2
		c1.1,0.5,2.3,0.7,3.6,0.7c1.3,0,2.5-0.2,3.6-0.7c1.1-0.5,2.1-1.2,2.9-2c0.8-0.8,1.5-1.8,2-2.9c0.5-1.1,0.7-2.3,0.7-3.6
		C421.4,282.4,421.2,281.2,420.7,280.1z M417.5,286c-0.3,0.7-0.7,1.4-1.3,1.9c-0.5,0.6-1.1,1-1.9,1.3c-0.7,0.3-1.5,0.5-2.3,0.5
		c-0.8,0-1.6-0.2-2.3-0.5c-0.7-0.3-1.3-0.8-1.9-1.3c-0.5-0.6-0.9-1.2-1.3-1.9s-0.5-1.5-0.5-2.3c0-0.8,0.2-1.6,0.5-2.3
		c0.3-0.7,0.7-1.4,1.3-1.9c0.5-0.6,1.1-1,1.9-1.3c0.7-0.3,1.5-0.5,2.3-0.5c0.8,0,1.6,0.2,2.3,0.5c0.7,0.3,1.3,0.8,1.9,1.3
		c0.5,0.6,0.9,1.2,1.3,1.9c0.3,0.7,0.5,1.5,0.5,2.3C418,284.5,417.8,285.2,417.5,286z"/>
</g>
<g>
	<rect x="120.4" y="173.8" width="21.1" height="78.6"/>
	<rect x="120.4" y="173.8" class="st1" width="21.1" height="81.7"/>
	<rect x="162" y="98" class="st1" width="21.1" height="157.4"/>
	<rect x="287.5" y="37.2" class="st1" width="21.1" height="218.2"/>
	<polygon class="st0" points="141.5,173.8 183,255.4 162.2,255.4 120.7,173.8 	"/>
	<polygon class="st1" points="245.2,0 203.7,172.5 224.4,172.5 265.9,0 	"/>
	<rect x="245.2" class="st0" width="21.1" height="255.4"/>
	<polygon class="st0" points="183,98 224.4,172.5 203.7,172.5 162.2,98 	"/>
</g>
</svg>
